<?xml version="1.0" standalone="no"?>
<!DOCTYPE svg PUBLIC "-//W3C//DTD SVG 20010904//EN"
 "http://www.w3.org/TR/2001/REC-SVG-20010904/DTD/svg10.dtd">
<svg version="1.0" xmlns="http://www.w3.org/2000/svg"
 width="715.000000pt" height="715.000000pt" viewBox="0 0 715.000000 715.000000"
 preserveAspectRatio="xMidYMid meet">
<metadata>
Created by potrace 1.11, written by Peter Selinger 2001-2013
</metadata>
<g transform="translate(0.000000,715.000000) scale(0.100000,-0.100000)"
fill="#000000" stroke="none">
<path d="M3488 6370 c-2 -8 -64 -17 -127 -20 -8 0 -11 -3 -8 -7 12 -11 -32
-35 -61 -32 -54 5 -202 -45 -202 -67 0 -9 -5 -12 -11 -9 -6 4 -16 -1 -23 -10
-14 -19 -85 -47 -99 -38 -14 8 -97 -27 -97 -42 0 -7 -8 -15 -17 -19 -10 -3
-36 -17 -58 -30 -22 -14 -49 -30 -60 -35 -38 -20 -74 -56 -89 -91 l-15 -35 -1
30 c-2 28 -3 27 -26 -20 -13 -27 -24 -56 -24 -62 0 -7 -4 -13 -9 -13 -5 0 -12
6 -14 13 -4 10 -6 10 -6 0 -1 -7 -7 -13 -15 -13 -9 0 -12 -7 -9 -18 3 -12 -4
-25 -21 -36 -14 -9 -26 -24 -26 -33 0 -10 -9 -26 -20 -38 -48 -50 -60 -66 -60
-80 0 -8 -6 -12 -14 -9 -16 6 -27 -24 -34 -87 -1 -9 -13 -21 -27 -27 -14 -6
-22 -17 -20 -25 3 -7 -8 -28 -25 -47 -16 -18 -30 -40 -30 -47 0 -7 -9 -18 -20
-25 -11 -7 -20 -20 -20 -29 0 -9 -7 -19 -15 -23 -8 -3 -15 -12 -15 -19 0 -8
-7 -20 -15 -27 -9 -7 -13 -20 -10 -28 3 -8 1 -20 -3 -26 -5 -6 -17 -33 -27
-61 -16 -48 -47 -120 -66 -158 -6 -10 -7 -22 -4 -26 2 -5 -2 -28 -11 -52 -9
-24 -17 -84 -20 -134 -2 -49 -6 -112 -9 -140 -25 -239 -39 -444 -50 -699 -4
-90 -9 -124 -21 -137 -9 -11 -13 -26 -9 -37 3 -11 1 -23 -5 -27 -5 -3 -10 -1
-10 4 0 6 -4 11 -10 11 -5 0 -10 -9 -10 -19 0 -11 -3 -21 -7 -24 -5 -2 -2 -2
5 -1 6 2 12 -3 12 -11 0 -8 -4 -15 -9 -15 -5 0 -7 -10 -4 -21 5 -16 -4 -11
-33 19 -21 22 -48 43 -60 46 -25 8 -83 -29 -101 -64 -19 -36 -6 -144 23 -202
25 -50 32 -108 13 -108 -8 0 -8 -4 -1 -12 6 -8 8 -54 5 -118 -6 -148 -6 -153
28 -249 16 -47 31 -94 34 -104 5 -24 87 -116 103 -117 15 0 17 67 3 103 -12
31 4 97 23 97 9 0 15 -29 19 -107 9 -145 14 -173 32 -193 8 -9 15 -21 15 -26
0 -5 15 -19 34 -31 34 -22 66 -22 93 0 20 15 46 0 40 -24 -3 -11 1 -41 8 -67
8 -26 26 -99 40 -162 14 -63 37 -139 50 -167 14 -29 27 -64 31 -77 3 -14 11
-24 17 -23 6 1 13 -8 15 -20 2 -13 7 -23 12 -23 5 0 15 -18 21 -40 7 -22 19
-47 29 -57 15 -17 70 -124 70 -138 0 -4 -6 -5 -13 -2 -9 3 -12 -4 -11 -22 2
-36 4 -39 13 -18 10 26 24 17 27 -18 5 -52 -2 -60 -53 -61 -29 -1 -35 0 -15 3
23 3 32 9 32 23 0 23 -21 31 -38 13 -10 -10 -18 -11 -27 -3 -9 8 -14 5 -18
-10 -3 -11 -10 -20 -16 -20 -14 0 -14 33 0 47 8 8 8 13 0 17 -6 4 -11 2 -11
-5 0 -6 -7 -17 -16 -24 -13 -9 -14 -16 -6 -31 14 -27 -3 -54 -33 -54 -14 0
-25 -5 -25 -11 0 -6 7 -9 15 -6 17 7 30 -9 16 -18 -6 -3 -8 -12 -4 -20 3 -10
-1 -15 -13 -16 -11 0 -14 -3 -6 -6 17 -7 15 -33 -4 -33 -9 0 -12 -5 -8 -12 9
-14 10 -76 1 -85 -12 -11 -8 -25 5 -17 7 4 8 3 4 -4 -4 -7 -18 -12 -32 -12
-21 0 -24 -3 -18 -25 5 -19 2 -25 -10 -25 -9 0 -16 4 -16 10 0 5 -6 7 -13 4
-7 -2 -21 10 -32 28 -17 29 -20 50 -19 162 l1 129 -23 -57 c-27 -63 -49 -158
-59 -259 -4 -37 -11 -70 -16 -73 -5 -3 -9 0 -9 7 0 24 -29 -12 -35 -44 -10
-48 -28 -100 -42 -122 -12 -18 -13 -17 -7 12 4 20 2 39 -6 47 -6 8 -9 24 -5
36 8 25 -13 27 -58 4 -50 -26 -177 -135 -193 -166 -8 -15 -19 -28 -24 -28 -5
0 -34 -33 -64 -72 -54 -72 -126 -149 -126 -135 0 12 31 59 57 88 13 14 23 32
21 39 -2 7 7 19 20 25 13 7 38 27 55 45 31 32 31 33 7 25 -14 -4 -45 -16 -70
-27 -25 -10 -74 -31 -110 -45 -90 -36 -237 -115 -350 -189 -124 -80 -473 -327
-551 -390 -33 -27 -75 -59 -92 -72 -18 -13 -62 -52 -99 -88 -37 -35 -71 -64
-76 -64 -5 0 -25 -14 -43 -30 -19 -17 -47 -40 -62 -53 -97 -76 -137 -111 -137
-118 0 -5 768 -9 1814 -9 1795 0 1813 1 1831 20 23 26 38 26 30 0 -6 -20 2
-20 1729 -20 l1736 0 -1 82 0 83 -65 55 c-79 67 -159 108 -369 190 -400 157
-547 216 -640 260 -55 25 -116 53 -135 60 -19 8 -60 27 -90 43 -30 16 -102 54
-160 85 -96 50 -157 85 -443 253 -54 32 -111 61 -127 64 -37 8 -37 7 -118 167
-38 75 -82 152 -96 171 -14 18 -26 41 -26 49 0 9 -7 21 -15 28 -8 6 -26 33
-41 58 -24 40 -28 44 -35 27 -4 -11 -8 -43 -8 -70 -1 -55 -32 -230 -56 -311
-16 -57 -109 -237 -170 -329 -21 -33 -73 -102 -115 -153 -41 -52 -90 -117
-109 -145 -39 -59 -66 -93 -125 -157 -23 -25 -45 -53 -49 -62 -3 -10 -10 -18
-15 -18 -5 0 -21 -18 -36 -40 -19 -28 -31 -38 -43 -33 -11 4 -14 3 -9 -5 4 -7
1 -15 -8 -18 -8 -3 -25 -22 -39 -42 -35 -53 -65 -82 -127 -123 -55 -37 -140
-63 -125 -39 9 14 -12 30 -37 30 -12 0 -15 -5 -11 -16 4 -12 1 -14 -23 -7 -16
4 -46 8 -66 8 -49 -1 -33 21 23 30 21 4 39 11 39 17 0 6 -7 7 -17 3 -10 -4
-45 -12 -77 -16 -53 -8 -60 -7 -73 11 -8 11 -25 20 -39 20 -14 0 -23 4 -20 9
3 5 -11 12 -31 16 -20 3 -42 13 -50 20 -15 16 -76 35 -110 35 -13 0 -23 4 -23
9 0 5 46 8 103 6 136 -4 201 3 187 20 -7 8 -7 15 -1 19 10 7 50 10 66 6 6 -1
17 -2 25 -1 22 2 -39 31 -65 31 -12 0 -29 7 -36 17 -13 15 -12 15 7 5 20 -11
34 -7 34 9 0 4 -8 10 -17 12 -12 3 -8 5 9 6 14 0 28 -3 30 -9 2 -6 15 -6 33
-2 29 8 29 9 6 15 -33 8 -16 27 27 28 20 1 28 3 17 6 -71 15 -72 16 -30 25 22
5 51 10 65 12 62 8 64 9 30 15 l-35 6 38 18 c43 21 47 26 12 19 -15 -2 -25 0
-25 7 0 6 10 11 23 11 12 0 32 6 43 14 11 8 37 17 57 21 20 4 34 11 31 16 -3
5 -21 7 -40 3 -22 -4 -34 -2 -34 5 0 6 17 10 44 8 26 -1 44 2 43 8 -1 5 9 9
22 7 15 -2 21 0 17 7 -9 14 -76 15 -76 1 0 -5 -10 -9 -22 -9 -18 1 -19 2 -5 6
9 2 15 8 12 13 -3 5 10 12 29 16 20 3 40 12 47 20 6 8 15 11 20 8 5 -3 9 2 9
11 0 8 10 19 23 24 12 5 31 18 41 30 19 21 19 21 -5 19 -18 -2 -24 2 -23 15 3
27 -10 20 -39 -20 -24 -33 -27 -35 -27 -15 0 15 4 21 12 16 7 -5 9 0 6 14 -4
16 1 23 23 32 16 7 29 17 29 22 0 5 9 6 20 3 25 -8 26 3 3 22 -17 13 -16 14 5
8 13 -4 22 -2 22 5 0 7 8 9 20 5 14 -5 20 -2 20 9 0 9 6 15 13 13 7 -1 11 7
10 21 -2 12 2 22 7 22 6 0 10 -7 10 -15 0 -8 5 -15 10 -15 9 0 14 14 11 33 -2
12 16 8 29 -8 10 -12 10 -18 0 -30 -6 -8 -9 -19 -5 -25 9 -14 -18 -13 -34 3
-11 10 -12 7 -6 -13 10 -34 12 -35 38 -23 12 6 31 15 42 19 18 6 18 8 3 11
-24 6 -23 24 2 30 29 8 25 20 -10 28 -38 8 -39 25 -1 25 16 0 31 5 33 12 2 6
10 8 16 4 19 -12 14 -26 -10 -26 -16 0 -19 -3 -11 -11 8 -8 17 -7 32 3 25 15
28 38 5 38 -11 0 -14 5 -9 17 4 10 10 26 12 36 6 18 33 24 33 7 0 -5 -5 -10
-11 -10 -6 0 -9 -10 -7 -22 2 -13 10 -23 18 -23 8 0 14 7 12 16 -1 9 4 19 13
22 8 4 12 13 9 22 -5 11 -2 14 10 9 9 -3 16 -1 16 5 0 7 -6 14 -14 17 -23 9
-28 33 -5 27 12 -4 29 3 44 18 13 13 37 35 53 49 25 22 26 26 13 37 -9 6 -12
15 -8 19 4 5 12 2 17 -6 7 -12 11 -12 25 0 14 12 15 14 1 22 -12 7 -13 13 -4
33 12 27 23 31 33 15 8 -13 35 -13 35 0 0 6 -9 10 -19 10 -11 0 -23 5 -27 11
-5 8 6 9 37 4 24 -4 41 -4 37 0 -3 3 -14 8 -25 9 -24 4 -29 32 -6 40 10 3 24
9 31 12 7 4 12 -2 12 -15 0 -12 6 -21 13 -21 22 0 14 38 -9 44 -12 3 -24 12
-27 20 -4 10 0 12 14 9 13 -4 19 0 19 11 0 14 11 21 33 17 4 0 7 4 7 9 0 6 -7
10 -15 10 -8 0 -15 5 -15 11 0 5 4 7 10 4 5 -3 12 6 16 20 3 13 10 22 15 19 5
-3 9 0 9 5 0 6 -5 11 -11 11 -6 0 -9 6 -7 12 3 7 13 13 24 13 10 0 19 7 20 15
0 8 2 23 2 32 1 9 14 23 30 30 15 7 34 27 42 43 9 17 20 37 25 45 5 8 10 20
11 25 3 21 46 105 60 116 8 6 14 18 14 26 0 15 40 90 72 135 10 16 17 32 13
38 -5 8 26 63 46 80 10 9 54 155 52 172 -2 10 4 18 12 18 10 0 15 10 14 33 0
17 3 50 8 72 7 34 13 40 41 46 18 4 36 10 40 14 9 9 -28 36 -39 29 -16 -10 -9
72 13 147 11 41 22 101 24 134 2 63 12 130 22 155 15 41 29 105 25 117 -3 7 0
19 5 26 10 11 15 61 26 246 2 25 8 47 14 49 7 2 12 9 12 16 0 7 11 23 25 36
19 18 22 26 14 36 -9 11 -17 8 -40 -17 -15 -16 -26 -36 -23 -44 3 -8 -1 -21
-9 -30 -17 -17 -31 -20 -22 -5 3 5 8 25 10 45 6 44 31 84 60 95 11 4 21 17 22
28 1 11 13 32 27 47 17 18 23 32 17 39 -5 6 -8 36 -5 66 2 30 6 82 8 115 18
231 27 814 14 910 -5 39 -11 90 -13 115 -5 65 -23 143 -36 151 -6 4 -8 16 -4
28 4 13 1 28 -5 36 -7 8 -9 15 -5 15 4 0 2 7 -5 15 -7 9 -14 37 -15 63 -1 26
-9 58 -17 72 -9 14 -19 35 -23 48 -4 13 -14 22 -26 22 -19 0 -19 1 -2 26 16
25 16 27 -1 40 -10 7 -15 17 -11 23 3 6 -5 15 -19 21 -23 8 -26 15 -26 55 0
26 -5 56 -12 68 -12 23 -68 77 -80 77 -5 0 -8 11 -8 24 0 13 -7 26 -15 30 -8
3 -15 10 -15 16 0 6 -11 21 -25 34 -14 13 -25 28 -25 33 0 12 -49 78 -58 78
-24 1 -72 33 -92 62 -12 18 -29 33 -36 33 -8 0 -14 4 -14 10 0 15 -33 50 -47
50 -6 0 -38 22 -70 49 -33 26 -70 52 -83 56 -14 4 -35 14 -48 21 -12 8 -27 12
-31 9 -5 -3 -11 -2 -13 2 -6 14 -69 55 -97 63 -15 4 -35 4 -44 -2 -12 -6 -20
-3 -28 11 -7 10 -19 17 -26 14 -8 -3 -26 6 -41 20 -31 30 -102 62 -102 47 0
-5 5 -10 10 -10 6 0 10 -5 10 -10 0 -6 -18 1 -40 15 -22 14 -45 25 -52 25 -6
0 -20 7 -30 17 -10 9 -18 12 -18 7 0 -15 -54 -13 -72 3 -19 17 -116 25 -125
11 -2 -5 -11 -3 -20 3 -10 9 -17 9 -21 2 -4 -5 -23 -8 -42 -6 -59 6 -91 5
-103 -5 -7 -5 -27 -12 -45 -14 -25 -4 -35 0 -43 14 -10 19 -55 25 -61 8z m342
-430 c0 -5 -2 -10 -4 -10 -3 0 -8 5 -11 10 -3 6 -1 10 4 10 6 0 11 -4 11 -10z
m258 -172 c8 -8 6 -16 -10 -29 -11 -10 -25 -16 -29 -13 -17 10 -9 -10 14 -34
12 -14 16 -22 10 -18 -8 4 -13 1 -13 -7 0 -17 -27 -30 -35 -17 -3 5 -1 11 5
15 5 3 10 13 10 22 0 13 -3 13 -15 3 -9 -8 -15 -9 -15 -2 0 6 4 13 9 16 5 4 8
14 7 23 -4 22 15 42 33 35 9 -3 12 -1 7 6 -9 15 7 15 22 0z m-93 -14 c-10 -8
-26 -14 -34 -13 -11 0 -12 2 -3 6 6 2 10 8 8 11 -2 4 8 8 22 9 25 1 26 0 7
-13z m329 -45 c-3 -5 -10 -7 -15 -3 -5 3 -7 10 -3 15 3 5 10 7 15 3 5 -3 7
-10 3 -15z m-684 7 c0 -3 -4 -8 -10 -11 -5 -3 -10 -1 -10 4 0 6 5 11 10 11 6
0 10 -2 10 -4z m655 -36 c3 -5 1 -10 -4 -10 -6 0 -11 5 -11 10 0 6 2 10 4 10
3 0 8 -4 11 -10z m-297 -42 c-6 -17 -37 -23 -50 -10 -6 6 0 8 19 5 22 -4 25
-2 13 6 -13 9 -12 11 3 11 11 0 17 -6 15 -12z m-200 -65 c16 -16 16 -16 -1
-10 -10 4 -23 7 -28 7 -6 0 -7 5 -4 10 9 14 14 13 33 -7z m317 7 c3 -5 2 -10
-4 -10 -5 0 -13 5 -16 10 -3 6 -2 10 4 10 5 0 13 -4 16 -10z m415 0 c0 -5 -8
-10 -17 -10 -15 0 -16 2 -3 10 19 12 20 12 20 0z m-543 -6 c-3 -3 -12 -4 -19
-1 -8 3 -5 6 6 6 11 1 17 -2 13 -5z m63 -14 c0 -5 -4 -10 -10 -10 -5 0 -10 5
-10 10 0 6 5 10 10 10 6 0 10 -4 10 -10z m37 4 c-3 -3 -12 -4 -19 -1 -8 3 -5
6 6 6 11 1 17 -2 13 -5z m-327 -14 c0 -5 -5 -10 -11 -10 -5 0 -7 5 -4 10 3 6
8 10 11 10 2 0 4 -4 4 -10z m272 -48 c10 -10 1 -11 -37 -6 -65 9 -77 20 -20
19 25 -1 51 -7 57 -13z m338 -6 c0 -3 -4 -8 -10 -11 -5 -3 -10 -1 -10 4 0 6 5
11 10 11 6 0 10 -2 10 -4z m-74 -21 c11 -27 0 -36 -25 -19 -18 13 -20 18 -10
25 20 12 29 11 35 -6z m-261 -10 c11 -2 25 -4 31 -4 6 -1 11 -7 11 -13 0 -7 4
-22 9 -33 7 -19 7 -19 -10 -2 -9 9 -21 17 -26 17 -5 0 -15 6 -22 13 -7 7 -24
18 -38 25 l-25 13 25 -7 c14 -3 34 -7 45 -9z m350 -4 c-3 -6 -11 -11 -17 -11
-6 0 -6 6 2 15 14 17 26 13 15 -4z m109 -8 c4 -8 13 -13 21 -9 26 9 18 -46
-10 -72 -21 -20 -36 -24 -85 -24 -49 0 -59 -3 -50 -13 7 -9 24 -11 52 -7 36 4
40 3 35 -11 -4 -10 -2 -17 4 -17 5 0 12 7 15 15 4 8 11 12 17 8 17 -10 59 -11
82 -1 15 6 12 7 -9 3 -25 -5 -28 -4 -17 8 13 17 45 12 76 -10 l20 -15 -20 6
c-11 3 -27 1 -35 -4 -10 -6 5 -8 43 -5 52 4 57 3 57 -16 0 -16 4 -19 20 -14
11 4 20 2 20 -4 0 -6 -10 -11 -22 -12 -22 -1 -22 -1 2 -9 21 -7 22 -8 5 -9
-15 -1 -12 -5 13 -16 30 -13 44 -35 22 -35 -5 0 -10 -4 -10 -10 0 -15 50 -12
50 3 1 7 6 5 14 -5 14 -20 36 -24 36 -8 0 6 5 10 10 10 6 0 10 -6 10 -14 0
-10 7 -13 20 -11 11 2 18 0 15 -5 -3 -5 -1 -11 5 -15 5 -3 10 3 10 13 0 30 20
31 76 6 l52 -23 27 -88 c15 -48 33 -99 40 -113 22 -43 29 -73 15 -65 -9 5 -10
1 -5 -14 3 -12 8 -38 10 -57 3 -34 3 -35 -16 -18 -10 9 -19 12 -19 6 0 -6 5
-14 11 -18 7 -4 7 -10 1 -16 -7 -7 -3 -22 10 -47 l21 -36 -25 28 c-30 32 -42
35 -35 7 3 -11 1 -23 -4 -26 -14 -9 -10 -54 6 -71 9 -8 14 -18 11 -21 -9 -8
-36 19 -36 36 0 8 -3 12 -7 8 -5 -4 -8 -33 -8 -64 0 -51 -2 -57 -20 -55 -11 1
-14 0 -7 -3 14 -7 16 -34 2 -34 -13 0 -13 -33 0 -46 5 -5 12 -29 15 -53 3 -23
7 -47 10 -51 3 -5 0 -10 -7 -12 -8 -3 -5 -15 10 -39 16 -27 19 -38 10 -47 -9
-9 -9 -15 0 -24 7 -7 12 -22 12 -34 0 -13 5 -26 11 -30 8 -4 7 -9 -2 -14 -9
-6 -10 -12 -2 -22 10 -13 30 -142 32 -213 1 -22 4 -53 7 -70 43 -247 42 -416
-6 -680 -12 -66 -23 -149 -25 -185 -2 -40 -7 -64 -14 -62 -14 3 -14 -15 -1
-23 8 -5 8 -11 0 -20 -6 -7 -10 -17 -9 -21 1 -5 1 -20 0 -34 -1 -19 -4 -21
-10 -11 -7 11 -10 9 -13 -10 -2 -13 -9 -23 -16 -21 -10 2 -10 -3 -3 -17 6 -11
8 -33 5 -50 -5 -26 -8 -28 -20 -16 -19 19 -18 36 2 28 14 -5 14 -3 3 15 -7 11
-17 18 -21 16 -4 -3 -8 -1 -8 5 0 6 -9 15 -20 21 -26 14 -26 6 0 -18 16 -15
19 -24 12 -43 -5 -13 -7 -39 -5 -56 4 -27 2 -33 -12 -33 -14 0 -16 -6 -12 -29
4 -20 2 -31 -8 -35 -10 -3 -15 1 -15 11 0 9 -3 13 -7 10 -3 -4 -6 -20 -5 -37
1 -30 -21 -43 -31 -17 -3 7 -6 5 -6 -6 -1 -25 -38 -94 -53 -101 -11 -5 -11 -7
0 -12 9 -4 8 -10 -7 -23 -12 -10 -17 -22 -13 -26 4 -5 1 -5 -6 -1 -7 4 -10 11
-7 16 3 5 1 11 -5 15 -6 4 -10 -5 -10 -22 0 -15 -3 -38 -6 -51 -5 -18 -3 -21
12 -16 16 5 16 4 4 -5 -20 -15 -30 -14 -30 3 0 7 -8 20 -17 27 -16 13 -17 12
-5 -3 8 -9 12 -25 10 -35 -4 -14 -8 -10 -21 17 -10 19 -15 28 -13 19 2 -9 1
-22 -4 -29 -6 -9 -11 -6 -20 11 -7 13 -9 21 -5 17 4 -4 14 0 21 10 16 20 18
36 4 27 -7 -4 -10 14 -8 49 1 31 6 56 10 56 11 0 -1 49 -19 78 -7 12 -11 27
-8 32 4 6 -3 23 -14 39 -12 16 -21 37 -21 46 0 9 -9 19 -19 22 -12 3 -17 11
-14 19 3 8 0 14 -6 14 -6 0 -16 11 -21 25 -5 14 -14 25 -20 25 -6 0 -9 4 -5 9
3 6 -2 16 -10 23 -9 7 -22 19 -30 26 -8 7 -19 10 -25 7 -5 -3 -10 1 -10 9 0 9
-5 16 -11 16 -7 0 -22 11 -35 25 -13 14 -34 25 -48 25 -13 0 -27 6 -29 13 -3
6 -4 -3 -2 -22 2 -19 11 -39 20 -43 8 -5 15 -14 15 -20 0 -12 50 -75 106 -134
32 -35 46 -63 24 -49 -15 9 0 -46 17 -63 7 -7 13 -20 13 -27 0 -21 -46 28 -58
62 -6 16 -11 21 -11 11 -1 -9 -10 -19 -20 -23 -11 -3 -22 -14 -24 -23 -3 -12
-5 -11 -6 6 -1 26 -16 29 -30 5 -14 -25 -14 3 0 30 l12 22 -24 -21 c-28 -25
-49 -21 -49 9 -1 17 -4 14 -16 -13 -15 -32 -17 -33 -25 -15 -7 15 -8 13 -4
-12 2 -18 0 -33 -5 -33 -6 0 -10 24 -11 53 -1 41 -3 47 -9 27 -7 -21 -8 -22
-9 -5 -1 11 -6 27 -12 35 -8 12 -10 9 -6 -12 5 -34 0 -36 -12 -5 -8 19 -10 16
-17 -23 -4 -25 -9 -39 -12 -32 -6 19 -22 14 -22 -8 0 -13 -5 -18 -15 -14 -10
4 -12 15 -8 35 5 24 3 28 -11 23 -13 -5 -16 1 -16 27 0 19 -5 41 -11 49 -8 12
-9 9 -5 -12 4 -16 2 -28 -4 -28 -5 0 -10 8 -10 18 -1 33 -24 57 -55 57 -26 0
-30 -4 -37 -39 -12 -57 -16 -55 -12 8 2 38 -1 58 -12 66 -11 10 -14 9 -14 -3
0 -19 -32 -16 -38 4 -8 22 -23 28 -57 22 -29 -5 -33 -2 -37 21 -4 22 -2 26 18
26 12 0 24 -6 26 -12 3 -9 9 -8 22 5 11 11 33 17 60 17 34 0 50 7 83 35 45 38
69 88 30 60 -25 -17 -64 -20 -69 -4 -6 19 -84 23 -118 5 -18 -8 -36 -13 -41
-10 -5 3 -9 0 -9 -6 0 -6 -10 -21 -23 -34 -19 -19 -32 -22 -76 -20 -30 2 -63
7 -75 11 -11 3 -35 5 -52 4 -20 -1 -37 4 -45 14 -8 9 -22 25 -31 36 -10 10
-18 25 -18 32 0 7 -6 21 -14 32 -7 11 -17 36 -21 55 -10 46 -33 72 -58 64 -18
-6 -19 -3 -14 26 8 38 36 100 54 118 7 7 13 21 13 31 0 9 21 38 46 65 44 45
46 50 41 92 -2 25 0 44 5 44 6 0 7 13 2 33 -11 53 -7 85 18 119 12 18 25 48
27 68 10 83 -2 201 -20 208 -5 2 -9 10 -9 18 0 8 -5 14 -11 14 -6 0 -9 5 -7
11 2 7 -9 25 -25 41 -18 17 -27 34 -23 44 9 24 -11 53 -51 72 -20 9 -38 24
-40 32 -3 10 -1 9 7 -2 6 -10 17 -18 25 -18 10 0 11 5 2 25 -11 23 -19 26 -72
30 -13 0 -19 7 -17 18 2 11 -2 15 -13 11 -19 -7 -47 14 -38 29 3 6 1 7 -5 3
-6 -4 -20 -2 -30 3 -13 7 -22 7 -29 0 -7 -7 -29 -3 -69 11 -68 24 -72 25 -99
15 -14 -5 -16 -4 -7 3 17 12 -78 8 -104 -5 -11 -5 -44 -6 -74 -2 l-55 6 50 2
50 3 -68 14 c-66 14 -68 14 -133 -12 -36 -14 -68 -23 -71 -20 -9 8 -43 -24
-43 -41 0 -7 -5 -13 -11 -13 -6 0 -20 -12 -31 -26 -16 -20 -23 -23 -29 -12 -6
8 -9 -3 -9 -30 0 -24 -7 -56 -15 -73 -14 -26 -14 -30 0 -35 15 -6 22 -25 8
-23 -22 4 -43 -2 -43 -11 0 -6 3 -9 8 -9 18 3 22 -2 10 -15 -7 -8 -16 -12 -20
-9 -5 2 -8 -1 -8 -6 0 -6 5 -11 11 -11 8 0 8 -4 1 -12 -6 -7 -10 -15 -10 -18
1 -30 -17 -104 -28 -115 -22 -22 -16 -42 14 -50 27 -7 27 -7 5 -16 -31 -11
-29 -18 8 -31 19 -6 28 -15 25 -24 -7 -18 11 -28 32 -18 9 4 24 8 32 9 8 1 26
5 39 9 20 7 23 5 18 -8 -3 -8 -2 -18 3 -21 6 -4 7 -17 4 -29 -7 -29 21 -39 71
-24 27 9 52 7 117 -7 88 -20 110 -23 171 -24 21 -1 36 -5 33 -9 -2 -4 4 -9 15
-9 10 -1 19 3 19 8 0 6 9 7 20 4 11 -3 20 -2 20 3 0 6 8 8 19 5 11 -3 21 2 24
11 7 17 -6 20 -68 17 -52 -2 -158 21 -209 45 -28 13 -55 24 -62 24 -7 0 -20
10 -28 22 -15 21 -15 23 6 31 13 5 30 10 37 11 12 2 24 16 38 44 1 3 28 -10
108 -51 30 -16 71 -21 135 -18 30 1 40 8 63 44 24 35 28 49 23 85 -3 23 -3 42
-1 42 17 0 85 -54 110 -86 16 -22 35 -44 43 -50 12 -8 9 -14 -14 -30 -16 -10
-36 -22 -44 -26 -8 -3 20 -5 63 -4 70 2 92 -4 68 -18 -4 -3 -6 -16 -4 -30 3
-15 -3 -35 -18 -55 -29 -39 -18 -51 21 -23 39 29 45 28 22 -6 -23 -31 -52
-134 -52 -181 0 -33 -8 -47 -49 -84 -13 -12 -27 -32 -32 -44 -5 -13 -15 -23
-24 -23 -9 0 -15 -9 -15 -25 0 -17 -6 -25 -17 -25 -13 0 -14 -3 -5 -8 10 -7 9
-15 -4 -40 -15 -31 -34 -43 -34 -22 0 17 -20 11 -27 -7 -3 -10 -15 -25 -26
-34 -20 -17 -20 -17 1 -28 33 -18 29 -42 -7 -35 -25 5 -29 2 -35 -21 -4 -16
-3 -32 3 -38 7 -7 8 -3 5 9 -4 15 0 20 14 20 20 0 22 -18 13 -92 0 -6 -10 -22
-22 -35 -11 -13 -24 -31 -29 -39 -6 -11 -11 -12 -23 -2 -12 10 -18 10 -30 -3
-21 -20 -27 -19 -27 5 0 16 -4 18 -24 10 -13 -5 -27 -6 -30 -3 -3 4 -6 1 -6
-5 0 -7 -4 -12 -10 -12 -5 0 -10 7 -10 15 0 8 -7 15 -15 15 -17 0 -20 16 -5
25 13 8 13 35 0 35 -10 0 -90 -48 -100 -61 -9 -10 -73 -39 -87 -39 -7 0 -13
-4 -13 -10 0 -5 -6 -10 -14 -10 -8 0 -16 -5 -18 -11 -2 -6 -12 -10 -23 -8 -16
4 -17 6 -4 19 9 8 18 25 21 38 5 17 2 22 -12 22 -12 0 -20 -10 -24 -32 -5 -26
-11 -33 -31 -34 -33 -2 -32 12 1 20 21 6 25 12 22 31 -3 13 0 26 6 28 8 3 8
10 0 23 -11 19 -22 26 -71 44 -18 7 -33 17 -33 22 0 6 7 8 15 4 8 -3 15 -1 15
5 0 19 -31 21 -52 3 -21 -19 -21 -19 -9 4 17 32 6 39 -29 19 -18 -11 -31 -14
-35 -7 -3 5 1 10 9 10 25 0 18 20 -6 21 l-23 0 23 12 c19 8 25 8 33 -4 7 -12
9 -11 9 2 0 9 -7 20 -16 23 -13 5 -14 9 -4 21 9 11 9 15 1 15 -6 0 -14 -8 -18
-17 -3 -10 -13 -26 -20 -35 -8 -9 -12 -21 -9 -26 3 -6 -1 -12 -9 -16 -8 -3
-15 -12 -15 -21 0 -18 -5 -19 -30 -5 -16 8 -22 6 -33 -16 -9 -17 -17 -23 -21
-15 -4 6 -2 11 3 11 6 0 11 9 11 20 0 14 7 20 24 20 13 0 29 7 36 15 10 12 10
15 -4 15 -9 0 -16 -5 -16 -11 0 -5 -5 -7 -11 -3 -8 5 -8 9 1 14 7 4 9 13 5 19
-4 7 -1 18 5 26 6 8 9 19 5 24 -3 6 3 19 15 31 23 23 27 42 7 34 -10 -3 -13 3
-9 24 2 16 -1 33 -7 36 -7 4 -11 -1 -11 -12 0 -24 -35 -58 -45 -43 -3 6 -12
11 -18 11 -8 0 -7 -3 2 -9 7 -5 10 -14 7 -20 -4 -6 -3 -11 3 -11 5 0 13 5 17
11 4 8 10 7 18 -1 8 -9 5 -16 -13 -31 -13 -10 -18 -19 -12 -19 6 0 11 -4 11
-10 0 -5 -6 -10 -14 -10 -23 0 -41 -30 -45 -73 -1 -5 -6 -5 -12 -1 -6 4 -9 19
-5 36 5 28 4 29 -11 17 -15 -13 -16 -11 -9 14 4 19 3 26 -3 22 -7 -4 -9 8 -7
33 2 22 -3 47 -10 57 -7 10 -10 23 -7 29 4 5 6 26 4 45 -1 20 3 56 8 81 6 25
13 110 16 190 9 226 12 253 24 283 6 16 11 36 11 46 0 9 4 21 9 26 5 6 15 39
21 75 14 76 29 120 40 120 5 0 6 9 3 20 -3 11 -1 20 4 20 10 0 34 68 38 102 2
22 24 48 41 48 9 0 14 11 14 30 0 17 2 30 4 30 19 0 36 -16 36 -34 1 -19 1
-20 11 -3 8 13 7 22 -2 33 -17 21 -3 30 25 15 25 -14 46 -8 46 11 0 21 31 47
48 40 15 -5 15 -4 0 12 -14 13 -16 22 -8 37 15 27 33 24 24 -3 -6 -21 -4 -20
15 5 13 15 29 27 37 27 11 0 13 6 9 20 -4 12 -1 27 5 35 10 12 10 18 0 30 -11
13 -10 14 4 9 21 -8 45 22 39 47 -3 9 0 20 7 24 8 5 8 10 -1 21 -6 8 -8 14 -4
14 4 0 2 7 -5 15 -11 13 -8 19 14 40 32 30 33 43 2 55 -13 5 -26 15 -29 22 -3
7 -6 1 -6 -15 -1 -24 -4 -27 -26 -21 -18 4 -32 1 -47 -12 -21 -19 -21 -19 -16
3 4 16 2 20 -8 16 -16 -6 -19 8 -4 23 5 5 6 14 2 20 -10 16 -60 26 -67 14 -3
-5 -11 -10 -16 -10 -6 0 -3 10 5 22 22 32 20 45 -4 23 -24 -22 -39 -13 -17 9
8 9 13 25 10 36 -4 15 0 20 13 20 15 0 14 3 -6 17 -34 23 -41 34 -38 64 1 14
-5 34 -15 43 -19 19 -22 33 -8 38 6 2 11 32 12 68 1 41 7 71 17 82 8 10 12 25
8 34 -6 15 16 65 42 92 11 12 12 9 6 -14 -14 -65 -16 -89 -5 -74 9 12 11 12
17 -3 9 -23 24 -22 24 3 0 11 5 20 11 20 7 0 8 -11 4 -32 -6 -24 -4 -30 6 -26
11 4 14 -8 14 -54 -1 -33 3 -62 7 -64 4 -3 8 0 8 5 0 6 7 11 15 11 8 0 15 -4
15 -10 0 -5 7 -10 15 -10 19 0 21 76 3 83 -24 8 10 35 37 29 27 -5 31 -12 16
-27 -6 -6 -4 -18 5 -30 l15 -20 15 20 c9 12 24 19 37 17 18 -2 19 -1 7 7 -10
7 -11 11 -2 11 6 0 12 7 12 15 0 8 9 15 20 15 11 0 20 4 20 8 0 5 14 7 30 4
22 -3 30 0 30 11 0 9 10 19 22 23 13 4 28 14 35 23 6 9 15 13 19 9 4 -4 2 -14
-4 -21 -20 -24 -2 -26 23 -3 44 40 53 45 74 39 12 -3 28 0 36 7 8 7 15 9 15 5
0 -4 6 -3 13 2 19 16 85 25 92 13 4 -6 15 -8 25 -5 23 7 38 -14 19 -26 -10 -6
-8 -9 9 -9 13 0 20 4 17 10 -3 6 1 10 9 10 9 0 16 7 16 16 0 8 5 12 10 9 6 -4
8 -11 5 -16 -9 -14 7 -10 29 6 11 8 23 15 28 15 13 0 9 -28 -4 -33 -10 -4 -10
-6 0 -6 8 -1 16 8 19 19 6 22 23 27 24 8 0 -10 2 -10 6 0 7 17 23 15 40 -5 8
-10 12 -12 8 -5 -4 7 0 12 9 12 9 0 16 -4 16 -8 0 -5 21 -14 48 -20 26 -6 56
-13 67 -16 11 -4 0 3 -24 15 -33 16 -40 24 -32 32 9 9 14 8 20 -2 12 -19 30
-5 24 19 -3 13 -1 20 8 19 20 -1 57 -17 42 -18 -8 -1 -5 -11 9 -26 23 -26 49
-36 28 -10 -10 12 -10 15 4 15 9 0 16 -5 16 -11 0 -5 5 -7 11 -4 6 5 3 13 -10
22 -17 11 -19 18 -11 34 6 10 16 19 23 18 9 0 9 -2 0 -6 -7 -2 -13 -9 -13 -15
0 -6 6 -6 15 2 11 9 22 9 46 1 39 -13 39 -13 39 -1 0 6 -3 9 -7 9 -5 -1 -15
-1 -23 0 -13 1 -13 2 0 11 11 8 8 9 -12 4 -18 -4 -28 -2 -28 5 0 6 5 11 10 11
6 0 10 5 10 10 0 6 -7 10 -15 10 -8 0 -15 3 -15 8 0 11 64 9 73 -3 4 -6 10 -6
15 2 4 7 16 12 27 11 11 -1 35 2 53 6 31 7 46 -6 20 -18 -7 -4 -3 -4 10 -2 19
4 22 1 17 -12 -3 -9 -3 -13 1 -9 4 4 13 2 21 -4 20 -17 16 -1 -7 23 -30 33
-24 45 8 16 15 -14 33 -23 40 -21 6 3 12 1 12 -4 0 -15 -47 -36 -62 -28 -10 6
-10 5 -1 -5 19 -21 90 -21 115 0 20 17 21 19 5 20 -10 0 -16 4 -12 10 12 20
35 -2 28 -27 -5 -24 -4 -25 20 -19 16 3 42 -1 69 -12 24 -11 60 -21 80 -25 30
-4 36 -3 31 10 -4 11 -14 13 -39 8 -21 -3 -34 -2 -34 5 0 5 -10 10 -23 10 -12
0 -30 9 -40 20 -21 25 -12 25 37 0 46 -23 66 -17 34 10 -22 19 -22 19 -2 20
11 0 25 -5 31 -11 6 -6 17 -8 23 -4 9 6 6 12 -11 22 -24 13 -24 13 6 7 43 -9
50 -15 31 -26 -25 -14 -19 -26 9 -20 14 2 23 7 21 10 -3 3 1 10 10 17 9 6 17
23 17 37 2 28 21 28 46 -1 12 -14 13 -12 8 16 -5 25 -3 31 8 27 7 -3 16 -12
19 -21z m-559 7 c3 -6 -1 -7 -9 -4 -18 7 -21 14 -7 14 6 0 13 -4 16 -10z m181
-18 c1 -7 0 -8 -3 -2 -2 5 -9 8 -14 4 -5 -3 -9 0 -9 6 0 15 23 7 26 -8z m164
-15 c8 -3 -1 -5 -22 -5 -26 1 -35 5 -31 14 3 9 11 11 21 5 10 -4 24 -11 32
-14z m340 8 c0 -8 -4 -15 -10 -15 -5 0 -7 7 -4 15 4 8 8 15 10 15 2 0 4 -7 4
-15z m-11 -36 c6 8 11 9 15 3 9 -14 -4 -20 -34 -17 -39 4 -40 4 -40 16 0 5 4
8 9 5 5 -3 12 2 16 12 6 15 8 14 17 -8 7 -18 11 -21 17 -11z m-64 -39 c-3 -5
-10 -10 -16 -10 -5 0 -9 5 -9 10 0 6 7 10 16 10 8 0 12 -4 9 -10z m-1455 -5
c0 -2 -9 -9 -20 -15 -12 -6 -20 -7 -20 -1 0 5 8 12 18 14 9 3 18 5 20 6 1 0 2
-1 2 -4z m-160 -103 c-11 -2 -20 -8 -20 -13 0 -5 -7 -9 -15 -9 -9 0 -12 6 -9
15 4 8 15 15 25 15 10 0 19 6 19 13 0 8 4 7 10 -3 7 -11 5 -16 -10 -18z m-125
-62 c3 -5 1 -10 -4 -10 -6 0 -11 5 -11 10 0 6 2 10 4 10 3 0 8 -4 11 -10z
m-131 -46 c23 -9 20 -30 -4 -30 -13 0 -20 7 -20 18 0 20 1 21 24 12z m-380
-333 c-11 -52 -22 -44 -20 13 1 45 3 51 13 36 8 -11 10 -31 7 -49z m286 -40
c0 -6 -4 -12 -10 -16 -5 -3 -7 -13 -4 -23 5 -14 4 -14 -4 -3 -9 12 -13 13 -26
1 -9 -7 -20 -9 -24 -5 -4 4 -1 10 7 13 7 2 21 13 30 22 18 20 31 25 31 11z
m2535 -141 c-3 -5 -10 -10 -16 -10 -5 0 -9 5 -9 10 0 6 7 10 16 10 8 0 12 -4
9 -10z m15 -105 c0 -8 -4 -15 -10 -15 -5 0 -7 7 -4 15 4 8 8 15 10 15 2 0 4
-7 4 -15z m-2993 -27 c-3 -8 -6 -5 -6 6 -1 11 2 17 5 13 3 -3 4 -12 1 -19z
m3003 -58 c0 -11 -2 -20 -4 -20 -2 0 -6 9 -9 20 -3 11 -1 20 4 20 5 0 9 -9 9
-20z m-2735 -160 c3 -5 1 -10 -4 -10 -6 0 -11 5 -11 10 0 6 2 10 4 10 3 0 8
-4 11 -10z m642 -16 c-3 -3 -12 -4 -19 -1 -8 3 -5 6 6 6 11 1 17 -2 13 -5z
m-887 -85 c0 -5 -4 -9 -10 -9 -5 0 -10 7 -10 16 0 8 5 12 10 9 6 -3 10 -10 10
-16z m20 -34 c0 -9 -6 -12 -16 -8 -13 5 -13 7 -2 14 17 11 18 11 18 -6z m870
-86 c19 -8 46 -20 59 -28 l23 -13 -28 -14 c-18 -9 -60 -15 -123 -15 -53 0 -98
-5 -102 -10 -7 -12 -59 -1 -59 13 0 6 11 7 26 4 25 -7 25 -6 10 10 -20 19 -4
47 20 37 10 -3 17 2 20 14 4 16 14 19 62 17 31 -1 73 -8 92 -15z m455 1 c3 -5
1 -10 -4 -10 -6 0 -11 5 -11 10 0 6 2 10 4 10 3 0 8 -4 11 -10z m-1515 -70
c-8 -5 -17 -7 -19 -4 -3 3 1 9 9 14 8 5 17 7 19 4 3 -3 -1 -9 -9 -14z m1157 4
c-3 -3 -12 -4 -19 -1 -8 3 -5 6 6 6 11 1 17 -2 13 -5z m-1142 -63 c-3 -12 -11
-21 -17 -21 -5 0 -8 6 -5 14 3 8 1 17 -6 20 -9 3 -8 7 3 15 20 14 34 -2 25
-28z m1148 20 c5 -5 -18 -4 -50 1 -31 5 -60 12 -63 15 -8 9 104 -7 113 -16z
m42 -11 c3 -5 2 -10 -4 -10 -5 0 -13 5 -16 10 -3 6 -2 10 4 10 5 0 13 -4 16
-10z m-1205 -50 c0 -5 -4 -10 -10 -10 -5 0 -10 5 -10 10 0 6 5 10 10 10 6 0
10 -4 10 -10z m1138 -27 c5 -17 -26 -29 -40 -15 -6 6 -7 15 -3 22 9 14 37 9
43 -7z m-511 -69 c-3 -3 -12 -4 -19 -1 -8 3 -5 6 6 6 11 1 17 -2 13 -5z m-64
-41 c-7 -2 -21 -2 -30 0 -10 3 -4 5 12 5 17 0 24 -2 18 -5z m-545 -110 c36
-38 25 -40 -13 -3 -19 19 -35 41 -34 49 0 13 3 12 12 -3 7 -11 22 -30 35 -43z
m712 -13 c0 -5 -15 -10 -32 -10 -25 0 -29 3 -18 10 20 13 50 13 50 0z m-672
-55 c-3 -3 -9 2 -12 12 -6 14 -5 15 5 6 7 -7 10 -15 7 -18z m32 -51 c0 -8 -4
-12 -10 -9 -5 3 -10 13 -10 21 0 8 5 12 10 9 6 -3 10 -13 10 -21z m-216 -151
c-4 -43 -12 -91 -18 -108 -19 -47 -19 -210 -1 -229 23 -23 18 -30 -10 -12 -23
15 -24 15 -18 -1 4 -10 17 -29 30 -43 23 -25 30 -50 15 -50 -11 0 -67 60 -82
88 -32 64 -30 177 8 305 12 41 21 56 30 52 10 -3 12 0 8 10 -3 8 0 14 7 12 7
-1 13 10 15 26 2 15 8 27 13 27 6 0 7 -29 3 -77z m176 -102 c-8 -25 -10 -58
-6 -88 6 -47 6 -47 -9 -20 -15 30 -11 104 7 140 16 32 22 9 8 -32z m47 -128
c-3 -10 -5 -4 -5 12 0 17 2 24 5 18 2 -7 2 -21 0 -30z m-15 -89 c3 -16 9 -37
13 -46 4 -11 3 -18 -3 -18 -12 0 -34 68 -26 81 2 4 0 10 -6 14 -5 3 -10 16
-10 28 0 21 1 20 14 -4 7 -14 16 -39 18 -55z m258 -58 c0 -3 -4 -8 -10 -11 -5
-3 -10 -1 -10 4 0 6 5 11 10 11 6 0 10 -2 10 -4z m-10 -50 c0 -2 -8 -10 -17
-17 -16 -13 -17 -12 -4 4 13 16 21 21 21 13z m1490 -155 c0 -10 -6 -21 -14
-24 -11 -4 -11 -1 -2 19 13 29 16 30 16 5z m51 -48 c13 -15 12 -15 -7 -5 -16
9 -24 7 -35 -7 -9 -9 -13 -23 -11 -30 3 -8 0 -11 -7 -7 -15 10 -14 18 7 44 21
26 35 28 53 5z m-71 -4 c0 -4 -7 -9 -15 -13 -8 -3 -15 0 -15 7 0 8 -4 6 -10
-3 -5 -8 -10 -10 -10 -4 0 6 3 13 6 17 8 8 44 5 44 -4z m47 -34 c-15 -16 -22
-11 -13 10 3 9 10 13 16 10 6 -4 5 -11 -3 -20z m230 -17 c-3 -8 -6 -5 -6 6 -1
11 2 17 5 13 3 -3 4 -12 1 -19z m-1394 -19 c-6 -6 -17 -8 -24 -3 -9 5 -8 9 7
14 23 9 31 3 17 -11z m-33 -50 c0 -16 -4 -28 -9 -25 -8 5 -3 56 5 56 2 0 4
-14 4 -31z m1024 5 c3 -8 2 -12 -4 -9 -6 3 -10 10 -10 16 0 14 7 11 14 -7z
m96 -51 c0 -9 16 -13 45 -13 36 0 45 -3 45 -17 0 -27 16 -47 30 -38 9 6 9 9
-1 16 -14 8 -1 10 116 13 22 1 46 5 54 10 10 7 12 4 6 -14 -6 -20 -4 -22 18
-18 19 4 24 1 20 -10 -5 -12 -2 -12 16 -2 29 15 36 8 21 -20 -9 -17 -14 -19
-26 -9 -8 6 -17 9 -21 5 -3 -3 -1 -6 5 -6 7 0 12 -9 12 -21 0 -12 4 -17 11
-14 6 4 9 1 8 -6 -2 -8 3 -25 10 -37 18 -33 6 -39 -33 -18 -20 11 -42 15 -55
11 -11 -3 -37 -2 -56 4 -37 10 -65 6 -65 -10 0 -5 11 -9 24 -9 14 0 37 -5 53
-11 80 -30 337 -48 356 -24 4 6 13 3 22 -9 12 -16 12 -22 2 -28 -8 -6 -9 -10
-1 -15 20 -14 24 -56 7 -68 -14 -11 -14 -14 5 -33 23 -23 31 -59 10 -46 -8 5
-9 2 -5 -9 7 -20 -4 -22 -21 -5 -9 9 -12 9 -12 0 0 -6 -8 -9 -17 -6 -12 4 -14
3 -6 -3 14 -10 28 -63 16 -63 -5 0 -7 -18 -5 -40 4 -44 -4 -49 -52 -30 -18 6
-26 6 -26 -1 0 -5 13 -15 30 -20 16 -6 27 -15 24 -21 -4 -6 -10 -6 -17 1 -25
25 -31 -1 -13 -56 6 -18 4 -22 -8 -17 -11 4 -16 19 -16 49 0 28 -6 47 -18 58
-22 20 -37 11 -20 -12 10 -14 10 -14 -2 -3 -8 7 -15 16 -15 20 -1 16 -26 52
-37 52 -7 0 -7 -4 0 -13 13 -15 23 -63 15 -71 -3 -3 -15 2 -28 10 -21 14 -23
13 -34 -15 -14 -32 -8 -90 9 -101 9 -6 9 -9 1 -14 -14 -9 -41 17 -41 38 0 9
-5 16 -12 16 -6 0 -27 12 -47 27 -20 14 -30 20 -24 13 8 -9 9 -17 3 -25 -8 -9
-4 -11 14 -8 20 4 24 1 24 -21 0 -14 -4 -26 -9 -26 -5 0 -9 5 -9 11 0 5 -4 8
-9 4 -5 -3 -12 -1 -16 5 -3 5 -11 10 -16 10 -5 0 2 -12 16 -27 15 -17 21 -29
13 -32 -6 -2 -18 5 -26 15 -13 18 -14 18 -7 -3 8 -28 -1 -29 -28 -5 -19 17
-20 16 -13 -10 7 -31 -8 -45 -29 -28 -12 10 -15 9 -15 -4 0 -9 5 -15 11 -13 6
1 14 -4 16 -10 3 -7 -2 -13 -11 -13 -9 0 -18 11 -22 25 -3 14 -10 23 -14 20
-11 -7 -21 22 -14 40 4 8 1 15 -6 15 -7 0 -10 7 -7 15 4 8 2 17 -3 20 -4 3
-11 -1 -13 -7 -4 -9 -6 -7 -6 3 -1 9 8 28 20 43 11 14 17 30 14 36 -3 5 1 10
9 10 19 0 20 4 4 30 -10 16 -10 22 1 32 11 11 13 11 6 0 -4 -8 -1 -18 8 -25
18 -15 30 -47 17 -47 -6 0 -10 -7 -10 -15 0 -8 5 -15 10 -15 6 0 10 4 10 9 0
20 40 -3 49 -28 8 -23 9 -24 10 -4 1 12 -9 29 -21 37 -25 18 -17 22 11 7 13
-7 18 -6 18 4 0 8 -4 12 -9 9 -4 -3 -8 0 -8 5 0 17 20 13 26 -4 5 -12 9 -13
20 -4 12 10 11 14 -8 27 -13 9 -29 24 -37 35 -7 10 -24 22 -37 27 -18 7 -24
17 -23 37 1 17 3 21 6 11 6 -26 31 -22 35 5 6 42 -3 66 -26 65 -11 -1 -25 -5
-31 -9 -5 -3 -39 -3 -75 1 -36 5 -99 11 -140 15 -41 4 -91 8 -110 10 -19 2
-48 8 -63 14 -34 13 -40 14 -33 2 4 -5 -3 -7 -14 -4 -11 3 -23 9 -26 14 -3 5
-14 9 -26 9 -16 0 -18 3 -9 14 19 22 3 43 -32 42 -18 -1 -37 -5 -44 -9 -6 -4
-14 -3 -18 3 -3 5 1 10 9 10 9 0 16 7 16 15 0 18 -12 19 -27 4 -6 -6 -16 -8
-22 -5 -14 9 -14 36 0 36 8 0 7 5 -2 16 -12 14 -14 14 -20 -4 -6 -15 -14 -18
-39 -14 -30 4 -30 5 -13 24 17 19 17 19 -12 13 -27 -6 -28 -5 -12 8 9 8 17 19
17 26 0 6 15 11 34 11 19 0 41 3 50 6 11 4 16 1 16 -11 0 -15 2 -16 17 -4 18
16 54 13 65 -5 6 -8 8 -8 8 1 0 9 23 11 95 6 93 -6 95 -6 95 16 0 17 -4 21
-19 16 -15 -4 -20 0 -23 24 -2 17 -1 28 4 25 4 -3 8 -12 8 -20 0 -8 5 -14 11
-14 6 0 9 15 7 37 -1 21 2 38 9 40 7 3 9 -3 6 -16 -3 -13 -1 -21 6 -21 7 0 10
4 7 9 -11 17 6 42 23 36 11 -4 13 -3 6 4 -5 5 -26 11 -45 13 -25 2 -36 8 -38
22 -3 14 0 17 13 12 10 -3 28 0 40 8 22 14 23 14 18 -7 -4 -21 -4 -21 18 3 21
24 21 24 15 3 -5 -14 -3 -23 3 -23 6 0 11 5 11 11 0 6 9 9 20 6 10 -3 22 0 25
7 3 8 7 8 11 -2 3 -6 10 -10 15 -6 5 3 2 12 -6 20 -8 9 -15 21 -15 27 1 16 39
-34 40 -50z m798 8 c3 -8 -1 -12 -9 -9 -7 2 -15 10 -17 17 -3 8 1 12 9 9 7 -2
15 -10 17 -17z m-1045 -17 c-6 -17 -13 -17 -35 0 -22 16 -15 25 17 19 15 -3
22 -10 18 -19z m677 -19 c0 -8 -4 -15 -10 -15 -5 0 -7 7 -4 15 4 8 8 15 10 15
2 0 4 -7 4 -15z m945 5 c3 -5 -1 -10 -10 -10 -9 0 -13 5 -10 10 3 6 8 10 10
10 2 0 7 -4 10 -10z m-2575 -4 c0 -3 -4 -8 -10 -11 -5 -3 -10 -1 -10 4 0 6 5
11 10 11 6 0 10 -2 10 -4z m1920 -2 c0 -3 -7 -12 -15 -20 -8 -9 -15 -13 -15
-11 0 3 -3 12 -6 21 -4 12 0 16 15 16 12 0 21 -3 21 -6z m105 -14 c3 -5 3 -15
-1 -21 -6 -11 -23 6 -24 24 0 10 18 9 25 -3z m-1055 -56 c0 -11 -9 -14 -32
-12 -40 4 -48 25 -11 30 35 5 43 1 43 -18z m690 -3 c0 -14 -28 -33 -40 -26
-16 10 -12 25 5 19 8 -4 15 -1 15 5 0 6 5 11 10 11 6 0 10 -4 10 -9z m-60 -11
c0 -5 -5 -10 -11 -10 -5 0 -7 5 -4 10 3 6 8 10 11 10 2 0 4 -4 4 -10z m720
-18 c0 -5 -7 -17 -15 -28 -15 -19 -20 -8 -9 20 6 17 24 22 24 8z m-575 -12 c4
-6 10 -8 15 -5 5 3 14 -4 20 -16 11 -19 10 -20 -12 -14 -12 4 -26 13 -30 19
-5 7 -8 4 -8 -8 0 -14 -3 -16 -13 -7 -8 6 -17 8 -20 4 -4 -3 -7 -1 -7 5 0 7 7
12 15 12 8 0 15 5 15 10 0 13 17 13 25 0z m-1314 -10 c5 0 9 -5 9 -11 0 -6
-10 -9 -22 -8 -13 2 -29 0 -35 -4 -7 -5 -13 -5 -13 -2 0 14 26 34 38 30 8 -3
18 -5 23 -5z m-12 -42 c11 -10 14 -10 18 0 6 16 33 15 33 -2 0 -24 -43 -28
-65 -6 -21 21 -8 28 14 8z m1651 -8 c0 -5 -5 -10 -11 -10 -5 0 -7 5 -4 10 3 6
8 10 11 10 2 0 4 -4 4 -10z m-1633 -40 c24 0 54 -39 48 -63 -7 -27 -41 -33
-62 -11 -8 7 -21 14 -29 14 -8 0 -12 5 -9 11 5 7 15 5 31 -5 13 -9 31 -16 41
-16 17 1 17 1 -1 11 -31 18 -56 48 -56 66 0 13 3 14 12 5 7 -7 18 -12 25 -12z
m1658 -128 c4 -4 5 3 2 16 -3 12 -1 22 4 22 5 0 9 -5 9 -11 0 -5 5 -7 10 -4
21 13 9 -15 -20 -46 -20 -23 -26 -35 -18 -40 6 -4 13 -18 15 -31 2 -18 1 -20
-7 -8 -8 13 -11 12 -24 -5 -15 -19 -15 -19 -16 12 0 17 -3 39 -7 49 -4 11 -3
15 4 11 13 -8 28 47 18 63 -3 5 -8 31 -10 57 l-5 48 19 -63 c10 -34 22 -66 26
-70z m142 86 c-3 -8 -6 -5 -6 6 -1 11 2 17 5 13 3 -3 4 -12 1 -19z m-1857 -78
c0 -5 -5 -10 -11 -10 -5 0 -7 5 -4 10 3 6 8 10 11 10 2 0 4 -4 4 -10z m1751
-43 c-10 -9 -11 -8 -5 6 3 10 9 15 12 12 3 -3 0 -11 -7 -18z m-101 -41 c0 -3
-4 -8 -10 -11 -5 -3 -10 -1 -10 4 0 6 5 11 10 11 6 0 10 -2 10 -4z m-5 -56
c-4 -12 -9 -19 -12 -17 -3 3 -2 15 2 27 4 12 9 19 12 17 3 -3 2 -15 -2 -27z
m-645 -60 c0 -5 -4 -10 -10 -10 -5 0 -10 5 -10 10 0 6 5 10 10 10 6 0 10 -4
10 -10z m34 -16 c4 -10 1 -14 -6 -12 -15 5 -23 28 -10 28 5 0 13 -7 16 -16z
m-24 -25 c0 -5 -4 -9 -10 -9 -5 0 -10 7 -10 16 0 8 5 12 10 9 6 -3 10 -10 10
-16z m-303 -11 c-3 -8 -6 -5 -6 6 -1 11 2 17 5 13 3 -3 4 -12 1 -19z m33 -2
c0 -3 -4 -8 -10 -11 -5 -3 -10 -1 -10 4 0 6 5 11 10 11 6 0 10 -2 10 -4z m505
-44 c-2 -3 -11 1 -20 8 -12 10 -16 8 -24 -11 -7 -18 -10 -20 -10 -6 -1 10 5
24 12 31 10 12 15 12 30 -2 9 -8 15 -17 12 -20z m-624 -45 c-8 -8 -11 -3 -11
19 1 25 2 27 11 11 8 -14 8 -22 0 -30z m-236 23 c-3 -5 -12 -10 -18 -10 -7 0
-6 4 3 10 19 12 23 12 15 0z m295 -36 c9 -27 15 -32 25 -24 18 15 27 -13 15
-44 -5 -13 -6 -27 -2 -31 4 -4 -2 -6 -13 -4 -11 2 -26 0 -32 -4 -15 -10 -17
11 -4 32 8 12 12 12 25 2 13 -11 16 -11 16 2 0 20 -24 39 -43 31 -8 -3 -18
-21 -21 -40 -8 -38 -29 -45 -46 -14 -8 16 -8 20 4 20 10 0 13 -6 10 -15 -4 -8
-2 -15 4 -15 5 0 12 11 14 25 3 14 1 25 -4 25 -5 0 -17 7 -26 16 -15 15 -14
18 11 36 15 11 27 26 27 34 0 25 29 3 40 -32z m83 35 c-6 -6 -9 -18 -6 -25 3
-8 -1 -14 -8 -14 -8 0 -2 -10 13 -23 25 -20 26 -23 11 -37 -15 -13 -16 -12
-10 3 4 11 0 20 -12 27 -29 15 -32 38 -9 60 23 21 40 28 21 9z m115 -17 c16
-20 15 -32 -1 -32 -9 0 -12 -11 -9 -34 4 -31 2 -34 -17 -29 -29 7 -28 -23 2
-55 l22 -25 -24 13 c-13 6 -21 7 -17 2 3 -6 2 -21 -3 -34 -9 -22 -10 -22 -11
7 0 17 -3 40 -6 52 -4 15 2 30 20 48 32 32 32 35 1 33 -18 -2 -24 -7 -20 -18
5 -11 3 -12 -5 -4 -13 13 -2 47 12 38 6 -4 9 6 8 22 -1 16 -2 32 -1 36 2 11
34 -3 49 -20z m-412 -9 c2 -13 -1 -23 -6 -23 -6 0 -10 5 -10 11 0 6 -6 9 -14
6 -10 -4 -14 1 -13 14 2 28 39 21 43 -8z m117 -20 c-5 -12 -7 -12 -14 -1 -7
11 -9 10 -9 -1 0 -8 -3 -12 -6 -9 -3 4 0 16 6 28 9 17 14 19 20 10 5 -7 6 -20
3 -27z m222 17 c3 -6 -1 -7 -9 -4 -18 7 -21 14 -7 14 6 0 13 -4 16 -10z m-17
-135 c-6 -14 -15 -25 -19 -25 -14 0 -21 42 -9 54 10 8 11 6 5 -11 -4 -14 -2
-23 4 -23 6 0 11 17 12 38 0 32 1 34 9 14 6 -14 5 -31 -2 -47z m-1235 25 c3
-11 1 -20 -4 -20 -5 0 -9 9 -9 20 0 11 2 20 4 20 2 0 6 -9 9 -20z m1017 -15
c0 -5 -5 -3 -11 5 -9 12 -10 11 -6 -7 3 -13 1 -23 -3 -23 -17 0 -21 19 -8 39
9 15 14 17 20 8 4 -7 8 -16 8 -22z m-53 -17 c-3 -8 -6 -5 -6 6 -1 11 2 17 5
13 3 -3 4 -12 1 -19z m80 0 c-3 -8 -6 -5 -6 6 -1 11 2 17 5 13 3 -3 4 -12 1
-19z m53 8 c0 -2 -8 -10 -17 -17 -16 -13 -17 -12 -4 4 13 16 21 21 21 13z
m355 -6 c3 -5 1 -10 -4 -10 -6 0 -11 5 -11 10 0 6 2 10 4 10 3 0 8 -4 11 -10z
m-23 -48 c-7 -2 -10 -14 -6 -30 4 -21 3 -24 -5 -12 -9 12 -11 11 -12 -10 -1
-14 -1 -28 0 -32 0 -5 -6 -8 -14 -8 -14 0 -20 13 -15 35 1 6 2 20 2 32 0 14 5
20 14 16 8 -3 16 5 20 22 6 25 8 26 17 9 7 -13 7 -19 -1 -22z m-1392 8 c-8 -5
-17 -7 -19 -4 -3 3 1 9 9 14 8 5 17 7 19 4 3 -3 -1 -9 -9 -14z m43 -33 c3 -7
-3 -13 -13 -14 -10 -1 -21 5 -24 13 -3 9 1 14 13 14 10 0 21 -6 24 -13z m1347
-81 c0 -3 -4 -8 -10 -11 -5 -3 -10 -1 -10 4 0 6 5 11 10 11 6 0 10 -2 10 -4z
m865 -376 c3 -5 1 -10 -4 -10 -6 0 -11 5 -11 10 0 6 2 10 4 10 3 0 8 -4 11
-10z m-435 -14 c0 -3 -4 -8 -10 -11 -5 -3 -10 -1 -10 4 0 6 5 11 10 11 6 0 10
-2 10 -4z m-40 -66 c0 -5 -4 -10 -10 -10 -5 0 -10 5 -10 10 0 6 5 10 10 10 6
0 10 -4 10 -10z m-120 -80 c0 -5 -5 -10 -11 -10 -5 0 -7 5 -4 10 3 6 8 10 11
10 2 0 4 -4 4 -10z m-2560 -40 c0 -5 -4 -10 -10 -10 -5 0 -10 5 -10 10 0 6 5
10 10 10 6 0 10 -4 10 -10z m-220 -44 c-19 -6 -58 -24 -87 -39 -29 -15 -50
-21 -47 -15 7 19 114 68 144 67 22 -1 20 -3 -10 -13z m-150 -76 c0 -5 -5 -10
-11 -10 -5 0 -7 5 -4 10 3 6 8 10 11 10 2 0 4 -4 4 -10z m-40 -44 c0 -2 -7 -6
-15 -10 -8 -3 -15 -1 -15 4 0 6 7 10 15 10 8 0 15 -2 15 -4z m220 -11 c0 -9
-6 -12 -15 -9 -8 4 -15 10 -15 15 0 5 7 9 15 9 8 0 15 -7 15 -15z m2380 -35
c0 -5 -2 -10 -4 -10 -3 0 -8 5 -11 10 -3 6 -1 10 4 10 6 0 11 -4 11 -10z m47
-6 c-3 -3 -12 -4 -19 -1 -8 3 -5 6 6 6 11 1 17 -2 13 -5z m-100 -160 c-3 -3
-12 -4 -19 -1 -8 3 -5 6 6 6 11 1 17 -2 13 -5z m843 -154 c0 -5 -7 -7 -15 -4
-8 4 -15 8 -15 10 0 2 7 4 15 4 8 0 15 -4 15 -10z m-3285 -20 c3 -5 1 -10 -4
-10 -6 0 -11 5 -11 10 0 6 2 10 4 10 3 0 8 -4 11 -10z m-845 -80 c0 -5 -7 -10
-16 -10 -8 0 -12 5 -9 10 3 6 10 10 16 10 5 0 9 -4 9 -10z m2354 -133 c25 -10
13 -21 -13 -12 -12 3 -21 14 -21 23 0 10 3 13 8 6 4 -6 16 -14 26 -17z m532
-15 c1 -7 0 -8 -3 -2 -2 5 -13 10 -23 10 -10 0 -21 4 -24 9 -4 5 5 6 21 2 15
-4 28 -13 29 -19z m1679 -12 c3 -5 1 -10 -4 -10 -6 0 -11 5 -11 10 0 6 2 10 4
10 3 0 8 -4 11 -10z m-1605 -10 c24 -15 7 -19 -20 -5 -15 8 -19 14 -10 14 8 1
22 -3 30 -9z m-655 -20 c3 -5 1 -10 -4 -10 -6 0 -11 5 -11 10 0 6 2 10 4 10 3
0 8 -4 11 -10z m-2135 -20 c0 -5 -4 -10 -10 -10 -5 0 -10 5 -10 10 0 6 5 10
10 10 6 0 10 -4 10 -10z m2940 -40 c0 -5 -4 -10 -10 -10 -5 0 -10 5 -10 10 0
6 5 10 10 10 6 0 10 -4 10 -10z m135 -10 c-3 -5 -10 -10 -16 -10 -5 0 -9 5 -9
10 0 6 7 10 16 10 8 0 12 -4 9 -10z"/>
<path d="M4275 5470 c3 -5 8 -10 11 -10 2 0 4 5 4 10 0 6 -5 10 -11 10 -5 0
-7 -4 -4 -10z"/>
<path d="M4411 5386 c-10 -12 -8 -13 9 -9 25 7 37 23 17 23 -8 0 -20 -6 -26
-14z"/>
<path d="M3850 5380 c0 -5 7 -10 16 -10 8 0 12 5 9 10 -3 6 -10 10 -16 10 -5
0 -9 -4 -9 -10z"/>
<path d="M3360 5270 c-9 -6 -10 -10 -3 -10 6 0 15 5 18 10 8 12 4 12 -15 0z"/>
<path d="M3450 5260 c0 -5 5 -10 10 -10 6 0 10 5 10 10 0 6 -4 10 -10 10 -5 0
-10 -4 -10 -10z"/>
<path d="M3645 5230 c27 -12 43 -12 25 0 -8 5 -22 9 -30 9 -10 0 -8 -3 5 -9z"/>
<path d="M2545 5190 c3 -5 8 -10 11 -10 2 0 4 5 4 10 0 6 -5 10 -11 10 -5 0
-7 -4 -4 -10z"/>
<path d="M2600 5160 c0 -5 5 -10 10 -10 6 0 10 5 10 10 0 6 -4 10 -10 10 -5 0
-10 -4 -10 -10z"/>
<path d="M4745 5150 c-3 -5 1 -10 9 -10 9 0 16 5 16 10 0 6 -4 10 -9 10 -6 0
-13 -4 -16 -10z"/>
<path d="M2785 4840 c-3 -5 -1 -10 4 -10 6 0 11 5 11 10 0 6 -2 10 -4 10 -3 0
-8 -4 -11 -10z"/>
<path d="M2795 4769 c-4 -6 -5 -12 -2 -15 2 -3 7 2 10 11 7 17 1 20 -8 4z"/>
<path d="M2867 4746 c-4 -10 -5 -21 -2 -24 9 -9 17 6 13 25 -3 17 -4 17 -11
-1z"/>
<path d="M5045 4679 c-11 -16 -1 -19 13 -3 7 8 8 14 3 14 -5 0 -13 -5 -16 -11z"/>
<path d="M2597 4308 c-17 -18 -16 -38 2 -38 7 0 23 53 18 56 -1 0 -10 -8 -20
-18z"/>
<path d="M2684 4306 c-15 -11 -16 -17 -7 -27 9 -9 15 -8 28 5 9 9 21 16 26 16
5 0 9 5 9 10 0 15 -33 12 -56 -4z"/>
<path d="M2524 4245 c-10 -41 0 -48 17 -11 13 29 14 36 3 36 -8 0 -16 -11 -20
-25z"/>
<path d="M2465 4250 c-3 -5 -1 -10 4 -10 6 0 11 5 11 10 0 6 -2 10 -4 10 -3 0
-8 -4 -11 -10z"/>
<path d="M4345 4193 c-27 -2 -65 -11 -83 -19 -18 -8 -37 -12 -44 -8 -7 4 -8 3
-4 -5 6 -8 1 -10 -16 -6 -16 4 -29 1 -37 -9 -7 -8 -26 -18 -42 -21 -20 -5 -29
-12 -25 -20 2 -7 -2 -16 -10 -19 -10 -4 -13 -13 -9 -25 4 -14 -1 -25 -19 -36
-14 -9 -28 -26 -32 -38 -4 -12 -14 -28 -23 -35 -14 -11 -13 -12 6 -3 12 6 32
11 45 10 22 0 22 -1 3 -9 -26 -10 -64 -54 -91 -104 -23 -42 -22 -78 2 -69 8 3
14 -1 14 -11 0 -21 6 -20 32 3 24 23 78 25 78 4 0 -8 -13 -28 -30 -46 -16 -17
-28 -32 -27 -33 1 -2 29 4 61 11 36 9 71 25 90 42 47 43 103 71 76 38 -16 -20
4 -80 39 -118 25 -27 28 -28 111 -24 85 5 85 5 113 43 15 20 27 48 27 60 0 13
5 24 10 24 6 0 10 -4 10 -10 0 -5 6 -10 14 -10 17 0 29 -27 16 -35 -5 -3 -7
-12 -3 -20 3 -9 -5 -23 -18 -33 -22 -19 -22 -19 -1 -24 15 -4 19 -2 15 10 -5
13 0 14 38 8 24 -4 48 -11 54 -17 5 -5 16 -9 25 -9 9 0 25 -9 35 -20 19 -21
77 -36 95 -25 6 4 -5 18 -30 36 -22 16 -40 31 -40 34 0 2 17 -3 38 -12 l37
-15 -26 29 c-14 15 -33 44 -42 63 -18 40 -43 65 -102 103 -55 36 -113 53 -232
71 -134 20 -143 25 -108 60 17 17 35 26 46 23 11 -3 19 -2 19 3 0 12 79 31
135 33 87 2 224 -40 183 -56 -9 -4 -8 -6 3 -6 9 -1 22 -8 29 -16 7 -8 15 -13
19 -11 4 3 22 1 41 -4 32 -7 33 -8 8 -9 -35 -1 -36 -18 -2 -33 24 -11 25 -13
8 -25 -19 -14 -16 -15 31 -15 23 0 25 -1 8 -5 -13 -2 -23 -9 -23 -15 0 -9 22
-9 116 4 6 1 10 14 9 30 -2 23 2 28 18 26 11 -2 22 3 24 10 3 7 -4 12 -19 12
-16 0 -19 3 -10 9 12 7 11 14 -2 39 -14 27 -14 31 -1 26 8 -4 15 -2 15 3 0 12
-81 103 -91 103 -4 0 -25 16 -46 35 -21 19 -39 30 -41 25 -5 -14 -54 -12 -77
3 -11 8 -42 15 -69 16 -27 2 -59 6 -70 10 -12 3 -51 6 -88 6 -36 0 -64 3 -62
6 4 6 -35 21 -46 17 -3 -1 -27 -3 -55 -5z m-210 -83 c-3 -5 -11 -10 -16 -10
-6 0 -7 5 -4 10 3 6 11 10 16 10 6 0 7 -4 4 -10z m37 -32 c-7 -7 -12 -8 -12
-2 0 6 3 14 7 17 3 4 9 5 12 2 2 -3 -1 -11 -7 -17z m-59 -35 c-3 -18 -9 -33
-14 -33 -5 0 -9 -6 -9 -14 0 -8 -4 -18 -10 -21 -15 -9 -12 22 3 37 8 7 12 20
9 30 -6 24 6 54 17 42 5 -5 7 -24 4 -41z m30 24 c3 -8 -1 -14 -8 -14 -7 0 -11
6 -8 14 3 7 6 13 8 13 2 0 5 -6 8 -13z m87 -1 c0 -3 -4 -8 -10 -11 -5 -3 -10
-1 -10 4 0 6 5 11 10 11 6 0 10 -2 10 -4z m-86 -51 c-4 -8 -8 -15 -10 -15 -2
0 -4 7 -4 15 0 8 4 15 10 15 5 0 7 -7 4 -15z m-29 -25 c3 -5 1 -10 -4 -10 -6
0 -11 5 -11 10 0 6 2 10 4 10 3 0 8 -4 11 -10z m380 -120 c61 -13 141 -47 131
-57 -3 -3 -24 4 -48 16 -49 23 -128 40 -197 42 -45 2 -46 2 -11 9 19 4 42 6
50 4 8 -1 42 -8 75 -14z m-45 -74 c0 -19 -26 -27 -39 -12 -13 15 -4 26 21 26
10 0 18 -6 18 -14z m240 -11 c9 -11 6 -12 -16 -6 -15 4 -29 12 -31 18 -5 15
33 5 47 -12z"/>
<path d="M4035 4079 c-4 -6 -5 -12 -2 -15 2 -3 7 2 10 11 7 17 1 20 -8 4z"/>
<path d="M4055 4050 c-3 -5 -1 -10 4 -10 6 0 11 5 11 10 0 6 -2 10 -4 10 -3 0
-8 -4 -11 -10z"/>
<path d="M2460 3950 c0 -5 5 -10 11 -10 5 0 7 5 4 10 -3 6 -8 10 -11 10 -2 0
-4 -4 -4 -10z"/>
<path d="M4958 3783 c7 -3 16 -2 19 1 4 3 -2 6 -13 5 -11 0 -14 -3 -6 -6z"/>
<path d="M2873 3730 c-1 -13 4 -16 18 -13 24 7 24 10 1 22 -14 7 -18 6 -19 -9z"/>
<path d="M2917 3713 c-4 -3 -7 -10 -7 -14 0 -9 39 1 46 12 6 10 -29 12 -39 2z"/>
<path d="M4135 3650 c-4 -6 5 -10 19 -10 14 0 26 5 26 10 0 6 -9 10 -19 10
-11 0 -23 -4 -26 -10z"/>
<path d="M2570 3640 c0 -5 10 -10 23 -10 18 0 19 2 7 10 -19 13 -30 13 -30 0z"/>
<path d="M4170 3570 c0 -5 9 -10 19 -10 11 0 22 -4 25 -9 4 -5 32 -17 64 -27
31 -10 60 -23 64 -28 4 -6 8 -8 8 -4 0 3 16 2 35 -3 20 -6 45 -7 55 -4 26 8
26 35 1 35 -11 0 -26 7 -34 15 -11 10 -17 11 -19 3 -3 -7 -10 -8 -17 -4 -9 6
-10 11 -3 15 6 4 -8 6 -31 6 -23 0 -48 -4 -56 -9 -7 -5 -16 -5 -20 0 -6 9 -69
34 -84 34 -4 0 -7 -4 -7 -10z"/>
<path d="M2878 3553 c12 -2 32 -2 45 0 12 2 2 4 -23 4 -25 0 -35 -2 -22 -4z"/>
<path d="M2345 3360 c-3 -5 -1 -10 4 -10 6 0 11 5 11 10 0 6 -2 10 -4 10 -3 0
-8 -4 -11 -10z"/>
<path d="M2365 3260 c3 -5 8 -10 11 -10 2 0 4 5 4 10 0 6 -5 10 -11 10 -5 0
-7 -4 -4 -10z"/>
<path d="M2400 3254 c0 -8 5 -12 10 -9 6 4 8 11 5 16 -9 14 -15 11 -15 -7z"/>
<path d="M2410 3200 c8 -5 24 -10 34 -10 26 0 18 6 -19 14 -22 5 -26 4 -15 -4z"/>
<path d="M5020 2866 c0 -16 18 -31 27 -22 3 3 -2 12 -11 21 -14 14 -16 14 -16
1z"/>
<path d="M5010 2821 c0 -6 4 -13 10 -16 6 -3 7 1 4 9 -7 18 -14 21 -14 7z"/>
<path d="M4930 2700 c0 -5 5 -10 10 -10 6 0 10 5 10 10 0 6 -4 10 -10 10 -5 0
-10 -4 -10 -10z"/>
<path d="M4842 2530 c0 -14 2 -19 5 -12 2 6 2 18 0 25 -3 6 -5 1 -5 -13z"/>
<path d="M1800 3270 c0 -5 5 -10 10 -10 6 0 10 5 10 10 0 6 -4 10 -10 10 -5 0
-10 -4 -10 -10z"/>
<path d="M4035 2470 c-3 -5 -1 -10 4 -10 6 0 11 5 11 10 0 6 -2 10 -4 10 -3 0
-8 -4 -11 -10z"/>
<path d="M3600 2433 c0 -18 6 -23 24 -23 14 0 32 -7 40 -16 9 -8 20 -12 26 -9
18 11 11 33 -12 41 -13 4 -26 12 -30 18 -6 8 -11 6 -18 -4 -9 -13 -11 -13 -20
0 -8 12 -10 11 -10 -7z"/>
<path d="M3600 2396 c0 -2 7 -6 15 -10 8 -3 15 -1 15 4 0 6 -7 10 -15 10 -8 0
-15 -2 -15 -4z"/>
<path d="M3235 2380 c4 -6 11 -8 16 -5 14 9 11 15 -7 15 -8 0 -12 -5 -9 -10z"/>
<path d="M4030 2150 c0 -5 5 -10 10 -10 6 0 10 5 10 10 0 6 -4 10 -10 10 -5 0
-10 -4 -10 -10z"/>
<path d="M4288 2133 c3 -18 7 -21 13 -11 12 18 11 25 -4 31 -10 4 -13 -2 -9
-20z"/>
<path d="M4070 2131 c0 -6 4 -13 10 -16 6 -3 7 1 4 9 -7 18 -14 21 -14 7z"/>
<path d="M4290 2045 c0 -9 34 -45 43 -45 10 0 -25 49 -35 50 -5 0 -8 -2 -8 -5z"/>
<path d="M4035 2030 c3 -5 11 -10 16 -10 6 0 7 5 4 10 -3 6 -11 10 -16 10 -6
0 -7 -4 -4 -10z"/>
<path d="M4255 2010 c-3 -5 -1 -10 4 -10 6 0 11 5 11 10 0 6 -2 10 -4 10 -3 0
-8 -4 -11 -10z"/>
<path d="M4035 1941 c-3 -5 -1 -12 5 -16 5 -3 10 1 10 9 0 18 -6 21 -15 7z"/>
<path d="M3930 1912 c0 -5 7 -13 16 -16 10 -4 14 -1 12 6 -5 15 -28 23 -28 10z"/>
<path d="M3865 1890 c3 -5 8 -10 11 -10 2 0 4 5 4 10 0 6 -5 10 -11 10 -5 0
-7 -4 -4 -10z"/>
<path d="M3946 1872 c-2 -4 -1 -14 4 -22 7 -11 9 -9 7 8 -1 24 -3 26 -11 14z"/>
<path d="M3895 1820 c3 -5 11 -10 16 -10 6 0 7 5 4 10 -3 6 -11 10 -16 10 -6
0 -7 -4 -4 -10z"/>
<path d="M5438 3593 c-45 -48 -49 -65 -24 -93 12 -14 29 -26 37 -28 8 -2 21
-13 30 -24 l16 -21 15 22 c8 11 17 19 19 16 3 -2 6 6 8 18 19 115 -38 177
-101 110z"/>
<path d="M1705 3460 c3 -5 8 -10 11 -10 2 0 4 5 4 10 0 6 -5 10 -11 10 -5 0
-7 -4 -4 -10z"/>
<path d="M5305 2779 c-4 -6 -5 -12 -2 -15 7 -7 37 7 37 17 0 13 -27 11 -35 -2z"/>
<path d="M2320 1916 c0 -9 5 -16 10 -16 6 0 10 4 10 9 0 6 -4 13 -10 16 -5 3
-10 -1 -10 -9z"/>
<path d="M2310 1869 c0 -5 5 -7 10 -4 6 3 10 8 10 11 0 2 -4 4 -10 4 -5 0 -10
-5 -10 -11z"/>
<path d="M2355 1835 c-3 -8 -7 -22 -10 -30 -2 -8 0 -17 5 -20 6 -4 10 0 10 8
0 8 7 20 15 27 8 7 15 16 15 21 0 15 -30 10 -35 -6z"/>
<path d="M2255 1730 c3 -5 8 -10 11 -10 2 0 4 5 4 10 0 6 -5 10 -11 10 -5 0
-7 -4 -4 -10z"/>
<path d="M2257 1704 c-8 -8 1 -24 14 -24 5 0 9 7 9 15 0 15 -12 20 -23 9z"/>
<path d="M4410 1170 c-8 -5 -12 -12 -9 -15 4 -3 12 1 19 10 14 17 11 19 -10 5z"/>
<path d="M4047 893 c-13 -12 -7 -33 8 -33 8 0 15 9 15 20 0 20 -11 26 -23 13z"/>
<path d="M4092 878 c-16 -16 -15 -28 3 -28 8 0 15 9 15 20 0 23 -2 24 -18 8z"/>
<path d="M4037 833 c-14 -13 -6 -23 17 -23 13 0 26 7 30 15 4 11 -1 15 -18 15
-12 0 -26 -3 -29 -7z"/>
<path d="M4138 813 c7 -3 16 -2 19 1 4 3 -2 6 -13 5 -11 0 -14 -3 -6 -6z"/>
<path d="M3818 583 c7 -3 16 -2 19 1 4 3 -2 6 -13 5 -11 0 -14 -3 -6 -6z"/>
<path d="M3388 273 c6 -2 18 -2 25 0 6 3 1 5 -13 5 -14 0 -19 -2 -12 -5z"/>
<path d="M3488 253 c6 -2 18 -2 25 0 6 3 1 5 -13 5 -14 0 -19 -2 -12 -5z"/>
<path d="M140 194 c-25 -13 -53 -24 -62 -24 -10 0 -18 -4 -18 -9 0 -13 34 -24
38 -12 2 6 11 11 20 11 19 0 80 45 72 53 -3 3 -25 -6 -50 -19z"/>
<path d="M3760 166 c0 -10 28 -13 41 -5 10 6 7 9 -13 9 -16 0 -28 -2 -28 -4z"/>
<path d="M7 143 c-12 -11 -8 -34 8 -50 14 -13 18 -13 40 1 26 17 33 36 15 36
-6 0 -13 -7 -16 -15 -7 -17 -34 -20 -34 -4 0 7 8 18 18 25 16 12 16 13 -4 14
-11 0 -24 -3 -27 -7z"/>
</g>
</svg>
